HIERARCHY
ROOT Hips
{
	OFFSET -3.958830 18.904000 13.208200
	CHANNELS 6 Xposition Yposition Zposition Zrotation Yrotation Xrotation 
	JOINT LHipJoint
	{
		OFFSET 0.000000 0.000000 0.000000
		CHANNELS 3 Zrotation Yrotation Xrotation
		JOINT LeftUpLeg
		{
			OFFSET 1.800000 -1.400000 0.085000
			CHANNELS 3 Zrotation Yrotation Xrotation
			JOINT LeftLeg
			{
				OFFSET 2.215000 -6.000000 0.000000
				CHANNELS 3 Zrotation Yrotation Xrotation
				JOINT LeftFoot
				{
					OFFSET 2.500000 -6.900000 0.000000
					CHANNELS 3 Zrotation Yrotation Xrotation
					JOINT LeftToeBase
					{
						OFFSET 0.200000 -0.500000 1.950000
						CHANNELS 3 Zrotation Yrotation Xrotation
						End Site
						{
							OFFSET 0.000000 0.000000 0.000000
						}
					}
				}
			}
		}
	}
	JOINT RHipJoint
	{
		OFFSET 0.000000 0.000000 0.000000
		CHANNELS 3 Zrotation Yrotation Xrotation
		JOINT RightUpLeg
		{
			OFFSET -1.800000 -1.400000 0.085000
			CHANNELS 3 Zrotation Yrotation Xrotation
			JOINT RightLeg
			{
				OFFSET -2.215000 -6.000000 0.000000
				CHANNELS 3 Zrotation Yrotation Xrotation
				JOINT RightFoot
				{
					OFFSET -2.500000 -6.900000 0.000000
					CHANNELS 3 Zrotation Yrotation Xrotation
					JOINT RightToeBase
					{
						OFFSET -0.200000 -0.500000 1.950000
						CHANNELS 3 Zrotation Yrotation Xrotation
						End Site
						{
							OFFSET 0.000000 0.000000 0.000000
						}
					}
				}
			}
		}
	}
	JOINT LowerBack
	{
		OFFSET 0.000000 0.000000 0.000000
		CHANNELS 3 Zrotation Yrotation Xrotation
		JOINT Spine
		{
			OFFSET -0.087000 1.940000 -0.288900
			CHANNELS 3 Zrotation Yrotation Xrotation
			JOINT Spine1
			{
				OFFSET 0.000000 1.950000 0.060000
				CHANNELS 3 Zrotation Yrotation Xrotation
				JOINT Neck
				{
					OFFSET 0.000000 0.000000 0.000000
					CHANNELS 3 Zrotation Yrotation Xrotation
					JOINT Neck1
					{
						OFFSET 0.000000 1.600000 0.340000
						CHANNELS 3 Zrotation Yrotation Xrotation
						JOINT Head
						{
							OFFSET 0.000000 1.667000 -0.240000
							CHANNELS 3 Zrotation Yrotation Xrotation
							End Site
							{
								OFFSET 0.000000 0.000000 0.000000
							}
						}
					}
				}
				JOINT LeftShoulder
				{
					OFFSET 0.000000 0.000000 0.000000
					CHANNELS 3 Zrotation Yrotation Xrotation
					JOINT LeftArm
					{
						OFFSET 2.700000 1.550000 -0.730000
						CHANNELS 3 Zrotation Yrotation Xrotation
						JOINT LeftForeArm
						{
							OFFSET 5.450000 0.000000 0.000000
							CHANNELS 3 Zrotation Yrotation Xrotation
							JOINT LeftHand
							{
								OFFSET 3.450000 0.000000 0.000000
								CHANNELS 3 Zrotation Yrotation Xrotation
								JOINT LeftHandIndex1
								{
									OFFSET 0.750000 0.000000 0.000000
									CHANNELS 3 Zrotation Yrotation Xrotation
									End Site
									{
										OFFSET 0.000000 0.000000 0.000000
									}
								}
							}
						}
					}
				}
				JOINT RightShoulder
				{
					OFFSET 0.000000 0.000000 0.000000
					CHANNELS 3 Zrotation Yrotation Xrotation
					JOINT RightArm
					{
						OFFSET -2.700000 1.550000 -0.730000
						CHANNELS 3 Zrotation Yrotation Xrotation
						JOINT RightForeArm
						{
							OFFSET -5.450000 0.000000 0.000000
							CHANNELS 3 Zrotation Yrotation Xrotation
							JOINT RightHand
							{
								OFFSET -3.450000 0.000000 0.000000
								CHANNELS 3 Zrotation Yrotation Xrotation
								JOINT RightHandIndex1
								{
									OFFSET -0.750000 0.000000 0.000000
									CHANNELS 3 Zrotation Yrotation Xrotation
									End Site
									{
										OFFSET 0.000000 0.000000 0.000000
									}
								}
							}
						}
					}
				}
			}
		}
	}
}
MOTION
Frames: 14
Frame Time: 0.016667
0.565930 16.983470 -1.575770 -3.547137 6.156746 -5.394396 -15.274514 14.172269 3.502524 1.610731 0.475109 -0.078034 -6.135831 5.448952 8.831394 -0.436570 4.239826 3.208712 0.875470 0.419590 0.846410 17.913742 -10.963176 2.921281 -2.127295 3.500214 -13.556930 6.218040 -7.955677 33.938669 -0.863762 -4.984627 2.784025 0.161220 -0.276360 0.165400 -3.105832 -2.814920 -8.479816 9.524576 -1.969743 19.869476 -4.358615 0.340020 3.897670 5.227809 -0.617269 -16.787008 -5.516216 0.170934 53.167650 -2.098500 -0.760240 -23.156170 -26.464268 -22.978701 8.431284 -30.459855 -2.826785 -3.730105 -32.373824 -29.020109 5.108521 -3.029752 2.943983 1.088660 -0.294920 0.378640 0.198590 16.295781 27.037663 11.264534 30.975337 8.024444 -5.616950 52.280891 37.787379 12.894822 2.068383 -1.473997 -0.143000 0.197540 -0.343360 -0.426880 
0.578940 16.984500 -1.582930 -3.747859 6.225310 -5.487332 -15.253445 14.146563 3.505944 1.814205 0.500310 0.204657 -6.269671 5.428981 8.325013 -0.455368 4.276215 3.206985 0.865980 0.394160 0.836860 17.940061 -10.927150 2.946604 -2.279477 3.740289 -13.997322 6.751281 -8.196240 34.344142 -0.870258 -5.070310 2.754952 0.160390 -0.262720 0.151540 -3.176131 -2.817478 -8.499078 10.168772 -2.227121 20.006925 -4.760064 0.248980 3.798114 5.134108 -0.860983 -16.923372 -6.051224 0.505334 53.170684 -1.415220 -0.899210 -23.009190 -26.117615 -23.134353 8.576254 -29.784760 -2.600094 -3.680290 -32.084237 -29.462394 5.186684 -3.022131 2.934470 1.108450 -0.297000 0.360970 0.198980 16.081661 27.309897 11.218777 29.920038 8.562838 -5.358111 52.617357 38.572665 13.569806 2.054654 -1.468932 -0.171500 0.210680 -0.332870 -0.437500 
0.580790 16.992370 -1.598290 -3.845295 6.274494 -5.579160 -15.267898 14.144837 3.503403 1.965419 0.522898 0.277510 -6.340083 5.435778 8.110636 -0.493187 4.323284 3.193872 0.829990 0.340670 0.825720 17.928822 -10.857830 3.004224 -2.410315 4.254411 -14.905515 7.243682 -8.420563 35.156976 -0.873703 -5.184500 2.713621 0.147800 -0.252280 0.140560 -3.140045 -2.874091 -8.547502 10.100570 -2.083040 20.423573 -4.740355 0.456592 3.377621 5.175234 -0.611705 -17.180242 -5.549295 0.386300 53.240754 -2.150760 -0.613580 -22.905140 -25.899664 -23.557512 8.766822 -28.063115 -2.486147 -3.244824 -31.124677 -28.821472 4.965627 -3.039398 2.896083 1.131730 -0.287820 0.343280 0.181060 15.753973 27.722457 11.109466 28.610966 9.456608 -4.960257 51.844772 39.427236 14.062796 2.029280 -1.434488 -0.211250 0.226780 -0.301060 -0.462510 
0.591940 16.999850 -1.627000 -4.226951 6.921691 -6.043946 -15.267320 14.134366 3.493868 2.472991 0.587239 0.598430 -6.570914 5.456188 7.689706 -0.421695 4.304837 3.181829 0.859740 0.410190 0.818770 17.935909 -10.802575 3.034888 -2.515076 4.489577 -15.486232 7.838033 -8.618792 35.255371 -0.901734 -5.222350 2.695442 0.151740 -0.281710 0.168000 -3.168310 -2.905328 -8.557508 10.657916 -2.389915 21.288483 -5.163447 0.312495 3.444515 5.294573 -0.318671 -17.236538 -4.901775 0.120384 52.894030 -2.045450 -0.542390 -23.927510 -25.259723 -23.913824 8.969491 -26.646350 -2.724438 -3.185494 -28.671132 -29.211374 4.719316 -3.011305 2.946809 1.099240 -0.297450 0.376920 0.192880 14.754692 27.935328 10.880756 26.855253 10.499292 -4.869159 52.213359 42.499720 15.831317 2.035864 -1.468234 -0.144370 0.184100 -0.327580 -0.429230 
0.599920 17.015710 -1.666980 -4.611156 7.407890 -6.829074 -15.269944 14.176829 3.465517 2.897591 0.596101 0.748788 -6.460700 5.525491 8.161550 -0.380757 4.313480 3.158341 0.907470 0.470120 0.836480 17.931540 -10.763168 3.064139 -2.389733 4.678151 -15.869419 7.933081 -8.505399 35.004342 -0.908445 -5.160052 2.701976 0.165730 -0.314460 0.197000 -3.172392 -2.987139 -8.546508 11.073545 -2.675050 22.580407 -5.423690 0.243196 3.499752 5.369491 -0.211848 -17.216982 -4.654419 0.104784 52.609622 -1.557780 -0.581830 -24.547110 -25.365357 -24.345020 9.075301 -24.629027 -3.003556 -3.029785 -25.377080 -28.896374 4.137374 -2.975872 3.007709 1.080680 -0.312090 0.401590 0.204710 14.640557 28.410296 10.529183 23.932386 11.605238 -4.708923 51.775979 44.515871 17.053345 2.028463 -1.511492 -0.090730 0.138450 -0.356720 -0.413260 
0.611000 17.033010 -1.690970 -4.850489 7.415722 -7.504931 -15.274322 14.221257 3.487028 3.141993 0.655702 1.136882 -6.538207 5.544654 8.031583 -0.288408 4.293911 3.132782 0.959830 0.549170 0.839810 17.923316 -10.733818 3.066980 -2.200858 4.768215 -16.218485 7.406915 -8.026987 34.303530 -0.898248 -4.969639 2.742114 0.172430 -0.367520 0.250850 -3.156699 -3.081063 -8.553671 11.295046 -2.902912 23.727647 -5.708520 0.191438 3.255179 5.480844 -0.167992 -17.423695 -4.626406 0.408778 53.191476 -1.517390 -0.322670 -24.413390 -25.904795 -24.628665 9.368843 -22.686239 -2.351554 -3.040242 -21.864796 -28.575314 3.522614 -2.916083 3.128847 1.042660 -0.331970 0.449690 0.229430 14.918212 28.891349 10.245347 21.318188 12.423094 -4.604834 50.960079 46.890361 18.372379 2.038650 -1.587843 0.000560 0.051820 -0.400260 -0.376190 
0.620220 17.035420 -1.713580 -4.800520 8.035583 -7.592747 -15.272029 14.180454 3.482116 2.903700 0.686793 1.082782 -6.503556 5.489324 7.889222 -0.266211 4.238296 3.155221 0.968050 0.584460 0.814070 17.930469 -10.737036 3.075750 -2.490762 4.753597 -17.391576 7.561720 -7.778797 33.053539 -0.845221 -4.756548 2.824475 0.183630 -0.360270 0.260220 -3.185074 -2.983823 -8.534621 11.100054 -3.080749 24.009834 -5.931088 -0.028996 3.295203 5.473633 0.313651 -17.152450 -3.412395 -0.110626 52.046600 -1.752060 -0.174240 -24.340700 -25.475582 -24.776580 9.553316 -21.629523 -2.587711 -2.850794 -17.563485 -27.693915 2.684136 -2.913751 3.138989 1.015200 -0.316470 0.453890 0.260090 14.377154 28.697849 9.683376 20.135997 13.769278 -4.463045 47.889937 48.508770 18.261726 2.021788 -1.603995 0.018580 0.035970 -0.423990 -0.350760 
0.615120 17.030550 -1.721970 -4.662036 8.272798 -7.298944 -15.302819 14.147651 3.494056 2.633248 0.700576 0.983657 -6.461321 5.423386 7.410124 -0.302108 4.250333 3.182921 0.906900 0.501150 0.801580 17.907672 -10.706640 3.103371 -2.467321 4.799099 -18.756361 7.434174 -7.226276 31.111120 -0.704020 -4.390817 2.976302 0.169620 -0.312060 0.214770 -3.111142 -2.937644 -8.547381 10.218375 -2.614033 23.630166 -5.444415 0.206112 3.381741 5.511715 0.887785 -17.005761 -2.057889 -0.706767 50.813917 -3.137130 0.085730 -21.879350 -25.664920 -25.047446 9.652488 -20.115046 -2.864964 -2.481595 -14.048745 -26.627064 2.052222 -2.979598 3.072542 0.982470 -0.265120 0.377800 0.238100 14.473472 28.734328 9.353644 18.100307 14.330583 -4.289480 45.415807 49.682640 18.228972 1.983444 -1.596082 -0.043520 0.068570 -0.393950 -0.378370 
0.600550 17.037270 -1.735040 -4.324830 8.249112 -7.479782 -15.375452 14.207467 3.526796 2.516737 0.769999 1.215205 -6.583100 5.488771 7.386917 -0.322263 4.331240 3.175446 0.875060 0.441510 0.817240 17.835964 -10.644088 3.103630 -2.408970 4.760114 -19.498258 6.959024 -6.576595 29.117322 -0.617689 -3.976774 3.119359 0.151160 -0.295480 0.195490 -2.901412 -3.110696 -8.568919 8.517684 -1.922990 24.210250 -4.328554 0.578388 2.882459 5.538628 1.364026 -17.181322 -1.135518 -1.021359 51.447846 -3.395050 0.269350 -21.773980 -25.512826 -25.255779 9.825199 -19.538745 -3.309497 -2.098766 -10.305461 -25.069805 1.288842 -3.011604 2.977083 1.016730 -0.263140 0.366210 0.220570 14.403580 28.940369 9.095139 15.930650 14.725122 -4.232446 42.680117 50.315155 17.924631 1.961847 -1.551156 -0.092080 0.102920 -0.375810 -0.405640 
0.601490 17.036840 -1.733920 -4.393831 8.475091 -7.364214 -15.417900 14.231539 3.540750 2.655372 0.771056 1.219323 -6.766994 5.535676 7.289172 -0.348986 4.403365 3.156204 0.835780 0.375450 0.829900 17.794131 -10.612482 3.107061 -2.140810 4.544293 -20.147412 6.457134 -5.890644 26.215283 -0.509044 -3.497016 3.278849 0.129980 -0.286250 0.200040 -2.784009 -3.167470 -8.574306 7.957778 -1.522885 24.020615 -3.882459 0.866820 2.459566 5.816650 2.165153 -17.088542 0.530288 -1.978361 50.878947 -5.230750 0.481660 -21.125880 -26.012024 -25.344503 9.852669 -18.528134 -3.994279 -1.531834 -7.515351 -22.685991 0.733812 -3.079871 2.921063 1.019830 -0.238960 0.343470 0.187270 14.312946 28.749864 8.736069 14.284009 15.071247 -4.031569 39.172041 50.007652 16.830036 1.940666 -1.521113 -0.121250 0.102770 -0.344380 -0.434740 
0.608950 17.032640 -1.733530 -4.334770 8.360208 -7.540690 -15.441374 14.235699 3.552156 2.341074 0.877467 1.719310 -6.196396 5.410467 6.892235 -0.421879 4.469813 3.163173 0.763330 0.279010 0.802700 17.779730 -10.582251 3.101688 -2.147740 4.270861 -20.497656 6.406413 -5.411900 23.161106 -0.415518 -3.074909 3.442401 0.108600 -0.226050 0.176910 -2.726816 -3.206144 -8.554178 7.658436 -1.279386 24.393889 -3.725312 1.113936 2.044696 5.907083 2.350405 -16.665958 0.986685 -2.321927 50.108044 -5.604620 0.365040 -22.279340 -25.948820 -24.940819 9.682431 -17.775196 -4.376625 -1.269423 -4.463389 -21.429378 0.182819 -3.163481 2.785418 1.064970 -0.215430 0.310870 0.161430 14.078910 28.361684 8.232009 12.737841 15.771201 -4.034749 36.056997 50.387730 16.138536 1.900294 -1.423005 -0.204760 0.183140 -0.277440 -0.463640 
0.611390 17.030310 -1.742430 -4.206197 8.775212 -7.769235 -15.451219 14.202632 3.532084 1.990911 0.920945 1.908932 -5.642031 5.299323 7.033817 -0.393643 4.400499 3.177608 0.808060 0.340250 0.814410 17.777275 -10.597518 3.098278 -2.253413 3.852490 -20.722670 6.386476 -4.930147 19.871804 -0.367870 -2.722722 3.559286 0.128160 -0.241360 0.203590 -2.719438 -3.107049 -8.509908 7.273608 -1.097589 24.397767 -3.614625 1.165677 2.761079 5.923368 2.700305 -16.435334 1.869540 -2.734336 48.857569 -5.188250 0.234130 -22.348420 -25.474424 -25.109383 9.787675 -16.909127 -4.832501 -1.239449 -0.914455 -20.127929 -0.341543 -3.174086 2.833450 1.032510 -0.213580 0.321490 0.179150 13.543705 28.355175 7.903342 11.566428 16.251534 -4.451117 31.849785 50.847229 14.641332 1.881319 -1.469141 -0.157600 0.139830 -0.310630 -0.442870 
0.611600 17.021030 -1.748660 -4.141508 8.428592 -7.755279 -15.459029 14.130693 3.525771 1.706410 0.966810 2.147441 -5.492193 5.230097 6.741750 -0.426755 4.415427 3.176539 0.798890 0.320340 0.801050 17.787179 -10.572431 3.128562 -2.059882 3.645198 -21.235051 6.067294 -4.381800 16.689429 -0.286636 -2.399461 3.678269 0.146540 -0.225070 0.187270 -2.710216 -2.998521 -8.505854 7.077677 -0.798068 23.857304 -3.386137 1.362259 3.862662 5.968830 2.599361 -16.442112 1.835204 -2.774136 47.977028 -5.360170 0.054160 -20.972740 -24.912897 -25.431334 10.012075 -16.347730 -5.173429 -1.031634 2.869366 -18.031658 -0.882379 -3.224088 2.815452 1.019090 -0.193600 0.281810 0.178010 12.940522 28.909598 7.736668 10.451256 16.834995 -4.946067 26.556718 50.558955 12.491283 1.827085 -1.475537 -0.187900 0.141710 -0.299140 -0.455770 
0.606610 17.014990 -1.756590 -3.986044 8.483343 -7.753864 -15.461432 14.078154 3.504742 1.692298 0.998167 2.145906 -5.850758 5.339848 6.939330 -0.424624 4.458643 3.171698 0.774670 0.297800 0.778650 17.793750 -10.551624 3.164280 -2.129813 3.443736 -21.739476 5.821257 -3.949365 13.724945 -0.234955 -2.129636 3.793930 0.137740 -0.196110 0.174900 -2.713754 -2.913171 -8.508330 6.733234 -0.527586 23.782270 -3.278687 1.575270 4.031660 5.850156 2.633996 -16.463608 1.981461 -2.895928 47.780846 -4.730640 -0.200040 -20.859800 -24.150775 -25.500582 10.141275 -16.038661 -5.502334 -0.856938 5.961652 -16.138854 -1.229856 -3.277749 2.762781 1.015190 -0.181270 0.264680 0.177090 12.437923 29.006742 7.566982 9.878777 17.394627 -5.122840 22.411571 49.908402 10.796289 1.804106 -1.426214 -0.204320 0.167260 -0.282360 -0.451340 
